M48
;DRILL file {KiCad 4.0.1-stable} date Samstag, 06. Februar 2016 14:39:42
;FORMAT={-:-/ absolute / metric / decimal}
FMAT,2
METRIC,TZ
T1C0.400
T2C0.800
T3C1.000
T4C1.200
T5C3.048
%
G90
G05
M71
T1
X23.622Y18.796
X24.384Y21.209
X26.416Y14.478
X27.178Y16.256
X31.242Y12.954
X31.496Y8.382
X35.56Y12.319
X49.276Y21.463
X49.276Y16.383
T2
X11.Y14.
X11.Y11.5
X13.462Y15.748
X15.367Y13.208
X15.367Y5.588
X17.907Y13.208
X17.907Y5.588
X18.462Y15.748
X20.447Y13.208
X20.447Y5.588
X22.352Y21.463
X22.352Y16.463
X22.987Y13.208
X22.987Y5.588
X35.132Y16.764
X40.132Y16.764
X46.482Y17.78
X46.609Y20.32
X46.863Y15.113
X51.863Y15.113
X52.07Y20.32
X52.197Y17.78
T3
X2.032Y15.748
X2.032Y13.208
X2.032Y10.668
X2.032Y8.128
X2.032Y5.588
X4.572Y15.748
X4.572Y13.208
X4.572Y10.668
X4.572Y8.128
X4.572Y5.588
X7.747Y20.828
X7.747Y18.288
X7.747Y15.748
X7.747Y13.208
X7.747Y10.668
X7.747Y8.128
X7.747Y5.588
X7.747Y3.048
X10.65Y8.35
X11.303Y5.588
X11.303Y3.089
X20.828Y2.413
X23.327Y2.413
X25.654Y18.669
X25.654Y16.129
X27.432Y12.954
X27.432Y10.414
X27.432Y7.874
X27.432Y5.334
X27.432Y2.794
X29.337Y21.336
X29.337Y18.796
X29.337Y16.256
X31.877Y21.336
X31.877Y18.796
X31.877Y16.256
X37.592Y12.954
X37.592Y10.414
X37.592Y7.874
X37.592Y5.334
X37.592Y2.794
X40.132Y14.097
X40.132Y3.937
X42.926Y9.906
X42.926Y7.366
X42.926Y4.826
X42.926Y2.286
T4
X12.192Y19.558
X14.732Y19.558
X17.272Y19.558
T5
X40.259Y20.701
T0
M30
