G04 #@! TF.FileFunction,Soldermask,Top*
%FSLAX46Y46*%
G04 Gerber Fmt 4.6, Leading zero omitted, Abs format (unit mm)*
G04 Created by KiCad (PCBNEW 4.0.1-stable) date Mittwoch, 17. Februar 2016 08:22:04*
%MOMM*%
G01*
G04 APERTURE LIST*
%ADD10C,0.100000*%
%ADD11C,0.150000*%
%ADD12C,4.464000*%
%ADD13C,2.398980*%
%ADD14R,1.700000X1.700000*%
%ADD15C,1.700000*%
%ADD16R,1.120000X1.000000*%
%ADD17R,1.200100X1.200100*%
%ADD18R,2.127200X2.127200*%
%ADD19O,2.127200X2.127200*%
%ADD20R,2.432000X2.127200*%
%ADD21O,2.432000X2.127200*%
%ADD22R,2.635200X2.635200*%
%ADD23O,2.000000X2.700000*%
%ADD24R,2.400000X2.400000*%
%ADD25C,2.400000*%
%ADD26O,2.432000X2.940000*%
G04 APERTURE END LIST*
D10*
D11*
X0Y24000000D02*
X0Y0D01*
X54000000Y24000000D02*
X0Y24000000D01*
X54000000Y24000000D02*
X54000000Y0D01*
X0Y0D02*
X54000000Y0D01*
D12*
X40259000Y20701000D03*
D13*
X11303000Y3088640D03*
X11303000Y5588000D03*
X23327360Y2413000D03*
X20828000Y2413000D03*
D14*
X11000000Y14000000D03*
D15*
X11000000Y11500000D03*
D13*
X46482000Y17780000D03*
X52070000Y20320000D03*
X46609000Y20320000D03*
X52197000Y17780000D03*
D16*
X50103000Y20378000D03*
X48703000Y20378000D03*
X50103000Y19408000D03*
X48703000Y19408000D03*
X50103000Y18438000D03*
X48703000Y18438000D03*
X50103000Y17468000D03*
X48703000Y17468000D03*
D13*
X40132000Y14097000D03*
X40132000Y3937000D03*
X37592000Y10414000D03*
X27432000Y10414000D03*
X37592000Y2794000D03*
X27432000Y2794000D03*
X27432000Y5334000D03*
X37592000Y5334000D03*
X27432000Y12954000D03*
X37592000Y12954000D03*
X37592000Y7874000D03*
X27432000Y7874000D03*
D17*
X16317000Y3159760D03*
X14417000Y3159760D03*
X15367000Y1160780D03*
D18*
X29337000Y21336000D03*
D19*
X31877000Y21336000D03*
X29337000Y18796000D03*
X31877000Y18796000D03*
X29337000Y16256000D03*
X31877000Y16256000D03*
D20*
X7747000Y20828000D03*
D21*
X7747000Y18288000D03*
X7747000Y15748000D03*
X7747000Y13208000D03*
X7747000Y10668000D03*
X7747000Y8128000D03*
X7747000Y5588000D03*
X7747000Y3048000D03*
D22*
X10650000Y8350000D03*
D18*
X2032000Y15748000D03*
D19*
X4572000Y15748000D03*
X2032000Y13208000D03*
X4572000Y13208000D03*
X2032000Y10668000D03*
X4572000Y10668000D03*
X2032000Y8128000D03*
X4572000Y8128000D03*
X2032000Y5588000D03*
X4572000Y5588000D03*
D23*
X15367000Y5588000D03*
X17907000Y5588000D03*
X20447000Y5588000D03*
X22987000Y5588000D03*
X22987000Y13208000D03*
X20447000Y13208000D03*
X17907000Y13208000D03*
X15367000Y13208000D03*
D24*
X25654000Y18669000D03*
D25*
X25654000Y16129000D03*
D14*
X46863000Y15113000D03*
D15*
X51863000Y15113000D03*
D14*
X40132000Y16764000D03*
D15*
X35132000Y16764000D03*
D14*
X13462000Y15748000D03*
D15*
X18462000Y15748000D03*
D14*
X22352000Y21463000D03*
D15*
X22352000Y16463000D03*
D20*
X42926000Y9906000D03*
D21*
X42926000Y7366000D03*
X42926000Y4826000D03*
X42926000Y2286000D03*
D26*
X14732000Y19558000D03*
X17272000Y19558000D03*
X12192000Y19558000D03*
M02*
