G04 #@! TF.FileFunction,Copper,L2,Bot,Mixed*
%FSLAX46Y46*%
G04 Gerber Fmt 4.6, Leading zero omitted, Abs format (unit mm)*
G04 Created by KiCad (PCBNEW 4.0.1-stable) date Mittwoch, 17. Februar 2016 08:22:04*
%MOMM*%
G01*
G04 APERTURE LIST*
%ADD10C,0.100000*%
%ADD11C,0.150000*%
%ADD12C,4.064000*%
%ADD13C,1.998980*%
%ADD14R,1.300000X1.300000*%
%ADD15C,1.300000*%
%ADD16R,1.727200X1.727200*%
%ADD17O,1.727200X1.727200*%
%ADD18R,2.032000X1.727200*%
%ADD19O,2.032000X1.727200*%
%ADD20R,2.235200X2.235200*%
%ADD21O,1.600000X2.300000*%
%ADD22R,2.000000X2.000000*%
%ADD23C,2.000000*%
%ADD24O,2.032000X2.540000*%
%ADD25C,0.600000*%
%ADD26C,0.250000*%
%ADD27C,0.254000*%
G04 APERTURE END LIST*
D10*
D11*
X0Y24000000D02*
X0Y0D01*
X54000000Y24000000D02*
X0Y24000000D01*
X54000000Y24000000D02*
X54000000Y0D01*
X0Y0D02*
X54000000Y0D01*
D12*
X40259000Y20701000D03*
D13*
X11303000Y3088640D03*
X11303000Y5588000D03*
X23327360Y2413000D03*
X20828000Y2413000D03*
D14*
X11000000Y14000000D03*
D15*
X11000000Y11500000D03*
D13*
X46482000Y17780000D03*
X52070000Y20320000D03*
X46609000Y20320000D03*
X52197000Y17780000D03*
X40132000Y14097000D03*
X40132000Y3937000D03*
X37592000Y10414000D03*
X27432000Y10414000D03*
X37592000Y2794000D03*
X27432000Y2794000D03*
X27432000Y5334000D03*
X37592000Y5334000D03*
X27432000Y12954000D03*
X37592000Y12954000D03*
X37592000Y7874000D03*
X27432000Y7874000D03*
D16*
X29337000Y21336000D03*
D17*
X31877000Y21336000D03*
X29337000Y18796000D03*
X31877000Y18796000D03*
X29337000Y16256000D03*
X31877000Y16256000D03*
D18*
X7747000Y20828000D03*
D19*
X7747000Y18288000D03*
X7747000Y15748000D03*
X7747000Y13208000D03*
X7747000Y10668000D03*
X7747000Y8128000D03*
X7747000Y5588000D03*
X7747000Y3048000D03*
D20*
X10650000Y8350000D03*
D16*
X2032000Y15748000D03*
D17*
X4572000Y15748000D03*
X2032000Y13208000D03*
X4572000Y13208000D03*
X2032000Y10668000D03*
X4572000Y10668000D03*
X2032000Y8128000D03*
X4572000Y8128000D03*
X2032000Y5588000D03*
X4572000Y5588000D03*
D21*
X15367000Y5588000D03*
X17907000Y5588000D03*
X20447000Y5588000D03*
X22987000Y5588000D03*
X22987000Y13208000D03*
X20447000Y13208000D03*
X17907000Y13208000D03*
X15367000Y13208000D03*
D22*
X25654000Y18669000D03*
D23*
X25654000Y16129000D03*
D14*
X46863000Y15113000D03*
D15*
X51863000Y15113000D03*
D14*
X40132000Y16764000D03*
D15*
X35132000Y16764000D03*
D14*
X13462000Y15748000D03*
D15*
X18462000Y15748000D03*
D14*
X22352000Y21463000D03*
D15*
X22352000Y16463000D03*
D18*
X42926000Y9906000D03*
D19*
X42926000Y7366000D03*
X42926000Y4826000D03*
X42926000Y2286000D03*
D24*
X14732000Y19558000D03*
X17272000Y19558000D03*
X12192000Y19558000D03*
D25*
X27178000Y16256000D03*
X31496000Y8382000D03*
X26416000Y14478000D03*
X35560000Y12319000D03*
X24384000Y21209000D03*
X23622000Y18796000D03*
X31242000Y12954000D03*
X49276000Y21463000D03*
X49276000Y16383000D03*
D26*
X30516286Y20066000D02*
X27940000Y20066000D01*
X27940000Y20066000D02*
X27178000Y19304000D01*
X27178000Y19304000D02*
X27178000Y16256000D01*
X30516286Y20066000D02*
X31877000Y21336000D01*
X25781000Y15748000D02*
X25654000Y16129000D01*
X25654000Y12192000D02*
X25781000Y15748000D01*
X27432000Y11049000D02*
X25654000Y12192000D01*
X27432000Y10414000D02*
X27432000Y11049000D01*
X30607000Y7493000D02*
X27432000Y7874000D01*
X31496000Y8382000D02*
X30607000Y7493000D01*
X28067000Y14605000D02*
X26543000Y14605000D01*
X31877000Y18796000D02*
X30607000Y17272000D01*
X30607000Y14986000D02*
X30607000Y17272000D01*
X29591000Y14351000D02*
X30607000Y14986000D01*
X28321000Y14351000D02*
X29591000Y14351000D01*
X28067000Y14605000D02*
X28321000Y14351000D01*
X26543000Y14605000D02*
X26416000Y14478000D01*
X37592000Y5334000D02*
X39116000Y6477000D01*
X40767000Y6477000D02*
X42418000Y4826000D01*
X39116000Y6477000D02*
X40767000Y6477000D01*
X42418000Y4826000D02*
X42926000Y4826000D01*
X35560000Y12319000D02*
X35560000Y10541000D01*
X35560000Y10541000D02*
X36068000Y10033000D01*
X37592000Y10414000D02*
X36068000Y10033000D01*
X24384000Y21209000D02*
X23622000Y20447000D01*
X23622000Y20447000D02*
X23622000Y18796000D01*
X37592000Y12954000D02*
X31242000Y12954000D01*
X49276000Y16383000D02*
X49276000Y21463000D01*
X46482000Y17653000D02*
X48000000Y16008000D01*
X46482000Y17780000D02*
X46482000Y17653000D01*
X48000000Y16008000D02*
X48895000Y15113000D01*
X48895000Y15113000D02*
X51863000Y15113000D01*
D27*
G36*
X38750239Y22963291D02*
X37999345Y22213707D01*
X37592464Y21233827D01*
X37591538Y20172828D01*
X37996709Y19192239D01*
X38746293Y18441345D01*
X39661207Y18061440D01*
X39482000Y18061440D01*
X39246683Y18017162D01*
X39030559Y17878090D01*
X38885569Y17665890D01*
X38834560Y17414000D01*
X38834560Y16114000D01*
X38878838Y15878683D01*
X39017910Y15662559D01*
X39230110Y15517569D01*
X39270228Y15509445D01*
X39207345Y15483462D01*
X38747154Y15024073D01*
X38497794Y14423547D01*
X38497728Y14347709D01*
X37918547Y14588206D01*
X37268306Y14588774D01*
X36667345Y14340462D01*
X36207154Y13881073D01*
X36137779Y13714000D01*
X31804463Y13714000D01*
X31772327Y13746192D01*
X31428799Y13888838D01*
X31056833Y13889162D01*
X30713057Y13747117D01*
X30449808Y13484327D01*
X30307162Y13140799D01*
X30306838Y12768833D01*
X30448883Y12425057D01*
X30711673Y12161808D01*
X31055201Y12019162D01*
X31427167Y12018838D01*
X31770943Y12160883D01*
X31804118Y12194000D01*
X34624890Y12194000D01*
X34624838Y12133833D01*
X34766883Y11790057D01*
X34800000Y11756882D01*
X34800000Y10541000D01*
X34857852Y10250161D01*
X35022599Y10003599D01*
X35530599Y9495599D01*
X35608020Y9443868D01*
X35676983Y9381306D01*
X35730178Y9362245D01*
X35777160Y9330853D01*
X35868483Y9312688D01*
X35956141Y9281278D01*
X36012581Y9284025D01*
X36068000Y9273001D01*
X36159320Y9291166D01*
X36252327Y9295692D01*
X36369589Y9325008D01*
X36550480Y9143801D01*
X36207154Y8801073D01*
X35957794Y8200547D01*
X35957226Y7550306D01*
X36205538Y6949345D01*
X36550480Y6603801D01*
X36207154Y6261073D01*
X35957794Y5660547D01*
X35957226Y5010306D01*
X36205538Y4409345D01*
X36550480Y4063801D01*
X36207154Y3721073D01*
X35957794Y3120547D01*
X35957226Y2470306D01*
X36205538Y1869345D01*
X36664927Y1409154D01*
X37265453Y1159794D01*
X37915694Y1159226D01*
X38516655Y1407538D01*
X38976846Y1866927D01*
X39001779Y1926974D01*
X41318642Y1926974D01*
X41321291Y1911209D01*
X41575268Y1383964D01*
X42011680Y994046D01*
X42564087Y800816D01*
X42799000Y945076D01*
X42799000Y2159000D01*
X43053000Y2159000D01*
X43053000Y945076D01*
X43287913Y800816D01*
X43840320Y994046D01*
X44276732Y1383964D01*
X44530709Y1911209D01*
X44533358Y1926974D01*
X44412217Y2159000D01*
X43053000Y2159000D01*
X42799000Y2159000D01*
X41439783Y2159000D01*
X41318642Y1926974D01*
X39001779Y1926974D01*
X39226206Y2467453D01*
X39226272Y2543291D01*
X39805453Y2302794D01*
X40455694Y2302226D01*
X41056655Y2550538D01*
X41464116Y2957288D01*
X41321291Y2660791D01*
X41318642Y2645026D01*
X41439783Y2413000D01*
X42799000Y2413000D01*
X42799000Y2433000D01*
X43053000Y2433000D01*
X43053000Y2413000D01*
X44412217Y2413000D01*
X44533358Y2645026D01*
X44530709Y2660791D01*
X44276732Y3188036D01*
X43860931Y3559539D01*
X44170415Y3766330D01*
X44495271Y4252511D01*
X44609345Y4826000D01*
X44495271Y5399489D01*
X44170415Y5885670D01*
X43855634Y6096000D01*
X44170415Y6306330D01*
X44495271Y6792511D01*
X44609345Y7366000D01*
X44495271Y7939489D01*
X44170415Y8425670D01*
X44156087Y8435243D01*
X44177317Y8439238D01*
X44393441Y8578310D01*
X44538431Y8790510D01*
X44589440Y9042400D01*
X44589440Y10769600D01*
X44545162Y11004917D01*
X44406090Y11221041D01*
X44193890Y11366031D01*
X43942000Y11417040D01*
X41910000Y11417040D01*
X41674683Y11372762D01*
X41458559Y11233690D01*
X41313569Y11021490D01*
X41262560Y10769600D01*
X41262560Y9042400D01*
X41306838Y8807083D01*
X41445910Y8590959D01*
X41658110Y8445969D01*
X41699439Y8437600D01*
X41681585Y8425670D01*
X41356729Y7939489D01*
X41242655Y7366000D01*
X41314626Y7004176D01*
X41304401Y7014401D01*
X41057839Y7179148D01*
X40767000Y7237000D01*
X39116000Y7237000D01*
X39095611Y7232944D01*
X39226206Y7547453D01*
X39226774Y8197694D01*
X38978462Y8798655D01*
X38633520Y9144199D01*
X38976846Y9486927D01*
X39226206Y10087453D01*
X39226774Y10737694D01*
X38978462Y11338655D01*
X38633520Y11684199D01*
X38976846Y12026927D01*
X39226206Y12627453D01*
X39226272Y12703291D01*
X39805453Y12462794D01*
X40455694Y12462226D01*
X41056655Y12710538D01*
X41516846Y13169927D01*
X41766206Y13770453D01*
X41766774Y14420694D01*
X41518462Y15021655D01*
X41059073Y15481846D01*
X40998004Y15507204D01*
X41017317Y15510838D01*
X41233441Y15649910D01*
X41378431Y15862110D01*
X41429440Y16114000D01*
X41429440Y17414000D01*
X41385162Y17649317D01*
X41246090Y17865441D01*
X41033890Y18010431D01*
X40830789Y18051560D01*
X41767761Y18438709D01*
X42518655Y19188293D01*
X42925536Y20168173D01*
X42926462Y21229172D01*
X42521291Y22209761D01*
X41771707Y22960655D01*
X40978555Y23290000D01*
X44873000Y23290000D01*
X44873000Y18167250D01*
X44847794Y18106547D01*
X44847226Y17456306D01*
X44873000Y17393928D01*
X44873000Y710000D01*
X710000Y710000D01*
X710000Y1260837D01*
X19855443Y1260837D01*
X19954042Y994035D01*
X20563582Y767599D01*
X21213377Y791659D01*
X21701958Y994035D01*
X21800557Y1260837D01*
X20828000Y2233395D01*
X19855443Y1260837D01*
X710000Y1260837D01*
X710000Y4876995D01*
X942971Y4528330D01*
X1429152Y4203474D01*
X2002641Y4089400D01*
X2061359Y4089400D01*
X2634848Y4203474D01*
X3121029Y4528330D01*
X3301992Y4799161D01*
X3683510Y4381179D01*
X4212973Y4133032D01*
X4445000Y4253531D01*
X4445000Y5461000D01*
X4425000Y5461000D01*
X4425000Y5715000D01*
X4445000Y5715000D01*
X4445000Y5735000D01*
X4699000Y5735000D01*
X4699000Y5715000D01*
X4719000Y5715000D01*
X4719000Y5461000D01*
X4699000Y5461000D01*
X4699000Y4253531D01*
X4931027Y4133032D01*
X5460490Y4381179D01*
X5854688Y4813053D01*
X6026958Y5228974D01*
X5905818Y5460998D01*
X6070600Y5460998D01*
X6070600Y5553085D01*
X6177729Y5014511D01*
X6502585Y4528330D01*
X6817366Y4318000D01*
X6502585Y4107670D01*
X6177729Y3621489D01*
X6063655Y3048000D01*
X6177729Y2474511D01*
X6502585Y1988330D01*
X6988766Y1663474D01*
X7562255Y1549400D01*
X7931745Y1549400D01*
X8505234Y1663474D01*
X8991415Y1988330D01*
X9316271Y2474511D01*
X9430345Y3048000D01*
X9316271Y3621489D01*
X8991415Y4107670D01*
X8676634Y4318000D01*
X8991415Y4528330D01*
X9316271Y5014511D01*
X9430345Y5588000D01*
X9316271Y6161489D01*
X8991415Y6647670D01*
X8676634Y6858000D01*
X8924273Y7023467D01*
X8929238Y6997083D01*
X9068310Y6780959D01*
X9280510Y6635969D01*
X9532400Y6584960D01*
X9988163Y6584960D01*
X9918154Y6515073D01*
X9668794Y5914547D01*
X9668226Y5264306D01*
X9916538Y4663345D01*
X10241160Y4338156D01*
X9918154Y4015713D01*
X9668794Y3415187D01*
X9668226Y2764946D01*
X9916538Y2163985D01*
X10375927Y1703794D01*
X10976453Y1454434D01*
X11626694Y1453866D01*
X12227655Y1702178D01*
X12687846Y2161567D01*
X12902045Y2677418D01*
X19182599Y2677418D01*
X19206659Y2027623D01*
X19409035Y1539042D01*
X19675837Y1440443D01*
X20648395Y2413000D01*
X19675837Y3385557D01*
X19409035Y3286958D01*
X19182599Y2677418D01*
X12902045Y2677418D01*
X12937206Y2762093D01*
X12937774Y3412334D01*
X12689462Y4013295D01*
X12364840Y4338484D01*
X12687846Y4660927D01*
X12937206Y5261453D01*
X12937774Y5911694D01*
X12912456Y5972970D01*
X13932000Y5972970D01*
X13932000Y5203030D01*
X14041233Y4653879D01*
X14352302Y4188332D01*
X14817849Y3877263D01*
X15367000Y3768030D01*
X15916151Y3877263D01*
X16381698Y4188332D01*
X16637000Y4570418D01*
X16892302Y4188332D01*
X17357849Y3877263D01*
X17907000Y3768030D01*
X18456151Y3877263D01*
X18921698Y4188332D01*
X19177000Y4570418D01*
X19432302Y4188332D01*
X19897849Y3877263D01*
X20009692Y3855016D01*
X19954042Y3831965D01*
X19855443Y3565163D01*
X20828000Y2592605D01*
X21800557Y3565163D01*
X21701958Y3831965D01*
X21204776Y4016662D01*
X21461698Y4188332D01*
X21714149Y4566151D01*
X22062104Y4133500D01*
X22555181Y3863633D01*
X22557052Y3863237D01*
X22402705Y3799462D01*
X21985939Y3383422D01*
X21980163Y3385557D01*
X21007605Y2413000D01*
X21980163Y1440443D01*
X21986411Y1442752D01*
X22400287Y1028154D01*
X23000813Y778794D01*
X23651054Y778226D01*
X24252015Y1026538D01*
X24712206Y1485927D01*
X24961566Y2086453D01*
X24962134Y2736694D01*
X24713822Y3337655D01*
X24254433Y3797846D01*
X23710950Y4023520D01*
X23911896Y4133500D01*
X24264166Y4571517D01*
X24422000Y5111000D01*
X24422000Y5461000D01*
X23114000Y5461000D01*
X23114000Y5441000D01*
X22860000Y5441000D01*
X22860000Y5461000D01*
X22840000Y5461000D01*
X22840000Y5715000D01*
X22860000Y5715000D01*
X22860000Y7207915D01*
X23114000Y7207915D01*
X23114000Y5715000D01*
X24422000Y5715000D01*
X24422000Y6065000D01*
X24264166Y6604483D01*
X23911896Y7042500D01*
X23418819Y7312367D01*
X23336039Y7329904D01*
X23114000Y7207915D01*
X22860000Y7207915D01*
X22637961Y7329904D01*
X22555181Y7312367D01*
X22062104Y7042500D01*
X21714149Y6609849D01*
X21461698Y6987668D01*
X20996151Y7298737D01*
X20447000Y7407970D01*
X19897849Y7298737D01*
X19432302Y6987668D01*
X19177000Y6605582D01*
X18921698Y6987668D01*
X18456151Y7298737D01*
X17907000Y7407970D01*
X17357849Y7298737D01*
X16892302Y6987668D01*
X16637000Y6605582D01*
X16381698Y6987668D01*
X15916151Y7298737D01*
X15367000Y7407970D01*
X14817849Y7298737D01*
X14352302Y6987668D01*
X14041233Y6522121D01*
X13932000Y5972970D01*
X12912456Y5972970D01*
X12689462Y6512655D01*
X12306490Y6896296D01*
X12364031Y6980510D01*
X12415040Y7232400D01*
X12415040Y9467600D01*
X12370762Y9702917D01*
X12231690Y9919041D01*
X12019490Y10064031D01*
X11767600Y10115040D01*
X9532400Y10115040D01*
X9300880Y10071476D01*
X9316271Y10094511D01*
X9417014Y10600984D01*
X10280590Y10600984D01*
X10336271Y10370389D01*
X10819078Y10202378D01*
X11329428Y10231917D01*
X11663729Y10370389D01*
X11719410Y10600984D01*
X11000000Y11320395D01*
X10280590Y10600984D01*
X9417014Y10600984D01*
X9430345Y10668000D01*
X9316271Y11241489D01*
X9022652Y11680922D01*
X9702378Y11680922D01*
X9731917Y11170572D01*
X9870389Y10836271D01*
X10100984Y10780590D01*
X10820395Y11500000D01*
X11179605Y11500000D01*
X11899016Y10780590D01*
X12129611Y10836271D01*
X12297622Y11319078D01*
X12268083Y11829428D01*
X12129611Y12163729D01*
X11899016Y12219410D01*
X11179605Y11500000D01*
X10820395Y11500000D01*
X10100984Y12219410D01*
X9870389Y12163729D01*
X9702378Y11680922D01*
X9022652Y11680922D01*
X8991415Y11727670D01*
X8676634Y11938000D01*
X8991415Y12148330D01*
X9316271Y12634511D01*
X9430345Y13208000D01*
X9316271Y13781489D01*
X8991415Y14267670D01*
X8676634Y14478000D01*
X8934050Y14650000D01*
X9702560Y14650000D01*
X9702560Y13350000D01*
X9746838Y13114683D01*
X9885910Y12898559D01*
X10098110Y12753569D01*
X10350000Y12702560D01*
X10512385Y12702560D01*
X10336271Y12629611D01*
X10280590Y12399016D01*
X11000000Y11679605D01*
X11719410Y12399016D01*
X11663729Y12629611D01*
X11454098Y12702560D01*
X11650000Y12702560D01*
X11885317Y12746838D01*
X12101441Y12885910D01*
X12246431Y13098110D01*
X12297440Y13350000D01*
X12297440Y14650000D01*
X12277498Y14755982D01*
X12347910Y14646559D01*
X12560110Y14501569D01*
X12812000Y14450560D01*
X14112000Y14450560D01*
X14266786Y14479685D01*
X14041233Y14142121D01*
X13932000Y13592970D01*
X13932000Y12823030D01*
X14041233Y12273879D01*
X14352302Y11808332D01*
X14817849Y11497263D01*
X15367000Y11388030D01*
X15916151Y11497263D01*
X16381698Y11808332D01*
X16637000Y12190418D01*
X16892302Y11808332D01*
X17357849Y11497263D01*
X17907000Y11388030D01*
X18456151Y11497263D01*
X18921698Y11808332D01*
X19177000Y12190418D01*
X19432302Y11808332D01*
X19897849Y11497263D01*
X20447000Y11388030D01*
X20996151Y11497263D01*
X21461698Y11808332D01*
X21717000Y12190418D01*
X21972302Y11808332D01*
X22437849Y11497263D01*
X22987000Y11388030D01*
X23536151Y11497263D01*
X24001698Y11808332D01*
X24312767Y12273879D01*
X24422000Y12823030D01*
X24422000Y13592970D01*
X24312767Y14142121D01*
X24001698Y14607668D01*
X23536151Y14918737D01*
X22987000Y15027970D01*
X22437849Y14918737D01*
X21972302Y14607668D01*
X21717000Y14225582D01*
X21461698Y14607668D01*
X20996151Y14918737D01*
X20447000Y15027970D01*
X19897849Y14918737D01*
X19432302Y14607668D01*
X19177000Y14225582D01*
X18960316Y14549873D01*
X19125729Y14618389D01*
X19181410Y14848984D01*
X18462000Y15568395D01*
X18447858Y15554252D01*
X18268252Y15733858D01*
X18282395Y15748000D01*
X18641605Y15748000D01*
X19361016Y15028590D01*
X19591611Y15084271D01*
X19758545Y15563984D01*
X21632590Y15563984D01*
X21688271Y15333389D01*
X22171078Y15165378D01*
X22681428Y15194917D01*
X23015729Y15333389D01*
X23071410Y15563984D01*
X22352000Y16283395D01*
X21632590Y15563984D01*
X19758545Y15563984D01*
X19759622Y15567078D01*
X19730083Y16077428D01*
X19591611Y16411729D01*
X19361016Y16467410D01*
X18641605Y15748000D01*
X18282395Y15748000D01*
X17562984Y16467410D01*
X17332389Y16411729D01*
X17164378Y15928922D01*
X17193917Y15418572D01*
X17332389Y15084271D01*
X17562982Y15028590D01*
X17476787Y14942395D01*
X17357849Y14918737D01*
X16892302Y14607668D01*
X16637000Y14225582D01*
X16381698Y14607668D01*
X15916151Y14918737D01*
X15367000Y15027970D01*
X14817849Y14918737D01*
X14707823Y14845220D01*
X14708431Y14846110D01*
X14759440Y15098000D01*
X14759440Y16398000D01*
X14715162Y16633317D01*
X14706347Y16647016D01*
X17742590Y16647016D01*
X18462000Y15927605D01*
X19178316Y16643922D01*
X21054378Y16643922D01*
X21083917Y16133572D01*
X21222389Y15799271D01*
X21452984Y15743590D01*
X22172395Y16463000D01*
X22531605Y16463000D01*
X23251016Y15743590D01*
X23481611Y15799271D01*
X23649622Y16282078D01*
X23620083Y16792428D01*
X23481611Y17126729D01*
X23251016Y17182410D01*
X22531605Y16463000D01*
X22172395Y16463000D01*
X21452984Y17182410D01*
X21222389Y17126729D01*
X21054378Y16643922D01*
X19178316Y16643922D01*
X19181410Y16647016D01*
X19125729Y16877611D01*
X18642922Y17045622D01*
X18132572Y17016083D01*
X17798271Y16877611D01*
X17742590Y16647016D01*
X14706347Y16647016D01*
X14576090Y16849441D01*
X14363890Y16994431D01*
X14112000Y17045440D01*
X12812000Y17045440D01*
X12576683Y17001162D01*
X12360559Y16862090D01*
X12215569Y16649890D01*
X12164560Y16398000D01*
X12164560Y15098000D01*
X12184502Y14992018D01*
X12114090Y15101441D01*
X11901890Y15246431D01*
X11650000Y15297440D01*
X10350000Y15297440D01*
X10114683Y15253162D01*
X9898559Y15114090D01*
X9753569Y14901890D01*
X9702560Y14650000D01*
X8934050Y14650000D01*
X8991415Y14688330D01*
X9316271Y15174511D01*
X9430345Y15748000D01*
X9316271Y16321489D01*
X8991415Y16807670D01*
X8676634Y17018000D01*
X8991415Y17228330D01*
X9080741Y17362016D01*
X21632590Y17362016D01*
X22352000Y16642605D01*
X23071410Y17362016D01*
X23015729Y17592611D01*
X22532922Y17760622D01*
X22022572Y17731083D01*
X21688271Y17592611D01*
X21632590Y17362016D01*
X9080741Y17362016D01*
X9316271Y17714511D01*
X9430345Y18288000D01*
X9316271Y18861489D01*
X8991415Y19347670D01*
X8977087Y19357243D01*
X8998317Y19361238D01*
X9214441Y19500310D01*
X9359431Y19712510D01*
X9387135Y19849321D01*
X10541000Y19849321D01*
X10541000Y19266679D01*
X10666675Y18634869D01*
X11024567Y18099246D01*
X11560190Y17741354D01*
X12192000Y17615679D01*
X12823810Y17741354D01*
X13359433Y18099246D01*
X13476054Y18273781D01*
X13654370Y18046764D01*
X14217523Y17730074D01*
X14349056Y17698025D01*
X14605000Y17817164D01*
X14605000Y19431000D01*
X14585000Y19431000D01*
X14585000Y19685000D01*
X14605000Y19685000D01*
X14605000Y21298836D01*
X14859000Y21298836D01*
X14859000Y19685000D01*
X14879000Y19685000D01*
X14879000Y19431000D01*
X14859000Y19431000D01*
X14859000Y17817164D01*
X15114944Y17698025D01*
X15246477Y17730074D01*
X15809630Y18046764D01*
X15987946Y18273781D01*
X16104567Y18099246D01*
X16640190Y17741354D01*
X17272000Y17615679D01*
X17903810Y17741354D01*
X18439433Y18099246D01*
X18797325Y18634869D01*
X18923000Y19266679D01*
X18923000Y19849321D01*
X18797325Y20481131D01*
X18439433Y21016754D01*
X17903810Y21374646D01*
X17272000Y21500321D01*
X16640190Y21374646D01*
X16104567Y21016754D01*
X15987946Y20842219D01*
X15809630Y21069236D01*
X15246477Y21385926D01*
X15114944Y21417975D01*
X14859000Y21298836D01*
X14605000Y21298836D01*
X14349056Y21417975D01*
X14217523Y21385926D01*
X13654370Y21069236D01*
X13476054Y20842219D01*
X13359433Y21016754D01*
X12823810Y21374646D01*
X12192000Y21500321D01*
X11560190Y21374646D01*
X11024567Y21016754D01*
X10666675Y20481131D01*
X10541000Y19849321D01*
X9387135Y19849321D01*
X9410440Y19964400D01*
X9410440Y21691600D01*
X9366162Y21926917D01*
X9246421Y22113000D01*
X21054560Y22113000D01*
X21054560Y20813000D01*
X21098838Y20577683D01*
X21237910Y20361559D01*
X21450110Y20216569D01*
X21702000Y20165560D01*
X22862000Y20165560D01*
X22862000Y19358463D01*
X22829808Y19326327D01*
X22687162Y18982799D01*
X22686838Y18610833D01*
X22828883Y18267057D01*
X23091673Y18003808D01*
X23435201Y17861162D01*
X23807167Y17860838D01*
X24019000Y17948365D01*
X24019000Y17542690D01*
X24115673Y17309301D01*
X24294302Y17130673D01*
X24328834Y17116370D01*
X24268722Y17056363D01*
X24019284Y16455648D01*
X24018716Y15805205D01*
X24267106Y15204057D01*
X24726637Y14743722D01*
X24980878Y14638152D01*
X24894484Y12219126D01*
X24909665Y12125442D01*
X24911346Y12030554D01*
X24933170Y11980399D01*
X24941919Y11926407D01*
X24991796Y11845664D01*
X25029661Y11758642D01*
X25069015Y11720658D01*
X25097761Y11674122D01*
X25174736Y11618615D01*
X25243024Y11552704D01*
X25947089Y11100091D01*
X25797794Y10740547D01*
X25797226Y10090306D01*
X26045538Y9489345D01*
X26390480Y9143801D01*
X26047154Y8801073D01*
X25797794Y8200547D01*
X25797226Y7550306D01*
X26045538Y6949345D01*
X26390480Y6603801D01*
X26047154Y6261073D01*
X25797794Y5660547D01*
X25797226Y5010306D01*
X26045538Y4409345D01*
X26390480Y4063801D01*
X26047154Y3721073D01*
X25797794Y3120547D01*
X25797226Y2470306D01*
X26045538Y1869345D01*
X26504927Y1409154D01*
X27105453Y1159794D01*
X27755694Y1159226D01*
X28356655Y1407538D01*
X28816846Y1866927D01*
X29066206Y2467453D01*
X29066774Y3117694D01*
X28818462Y3718655D01*
X28473520Y4064199D01*
X28816846Y4406927D01*
X29066206Y5007453D01*
X29066774Y5657694D01*
X28818462Y6258655D01*
X28473520Y6604199D01*
X28812768Y6942856D01*
X30516449Y6738414D01*
X30562096Y6741932D01*
X30607000Y6733000D01*
X30708713Y6753232D01*
X30812109Y6761201D01*
X30852936Y6781920D01*
X30897839Y6790852D01*
X30984065Y6848466D01*
X31076544Y6895398D01*
X31106334Y6930163D01*
X31144401Y6955599D01*
X31635680Y7446878D01*
X31681167Y7446838D01*
X32024943Y7588883D01*
X32288192Y7851673D01*
X32430838Y8195201D01*
X32431162Y8567167D01*
X32289117Y8910943D01*
X32026327Y9174192D01*
X31682799Y9316838D01*
X31310833Y9317162D01*
X30967057Y9175117D01*
X30703808Y8912327D01*
X30561162Y8568799D01*
X30561121Y8521923D01*
X30330795Y8291597D01*
X28960006Y8456091D01*
X28818462Y8798655D01*
X28473520Y9144199D01*
X28816846Y9486927D01*
X29066206Y10087453D01*
X29066774Y10737694D01*
X28818462Y11338655D01*
X28473520Y11684199D01*
X28816846Y12026927D01*
X29066206Y12627453D01*
X29066774Y13277694D01*
X28937319Y13591000D01*
X29591000Y13591000D01*
X29653160Y13603364D01*
X29716507Y13601435D01*
X29797204Y13632017D01*
X29881839Y13648852D01*
X29934533Y13684061D01*
X29993799Y13706521D01*
X31009800Y14341521D01*
X31072653Y14400658D01*
X31144401Y14448599D01*
X31179611Y14501294D01*
X31225769Y14544724D01*
X31261205Y14623409D01*
X31309148Y14695161D01*
X31321512Y14757320D01*
X31347537Y14815107D01*
X31349513Y14879985D01*
X31517973Y14801032D01*
X31750000Y14921531D01*
X31750000Y16129000D01*
X32004000Y16129000D01*
X32004000Y14921531D01*
X32236027Y14801032D01*
X32765490Y15049179D01*
X33159688Y15481053D01*
X33318708Y15864984D01*
X34412590Y15864984D01*
X34468271Y15634389D01*
X34951078Y15466378D01*
X35461428Y15495917D01*
X35795729Y15634389D01*
X35851410Y15864984D01*
X35132000Y16584395D01*
X34412590Y15864984D01*
X33318708Y15864984D01*
X33331958Y15896974D01*
X33210817Y16129000D01*
X32004000Y16129000D01*
X31750000Y16129000D01*
X31730000Y16129000D01*
X31730000Y16383000D01*
X31750000Y16383000D01*
X31750000Y16403000D01*
X32004000Y16403000D01*
X32004000Y16383000D01*
X33210817Y16383000D01*
X33331958Y16615026D01*
X33195319Y16944922D01*
X33834378Y16944922D01*
X33863917Y16434572D01*
X34002389Y16100271D01*
X34232984Y16044590D01*
X34952395Y16764000D01*
X35311605Y16764000D01*
X36031016Y16044590D01*
X36261611Y16100271D01*
X36429622Y16583078D01*
X36400083Y17093428D01*
X36261611Y17427729D01*
X36031016Y17483410D01*
X35311605Y16764000D01*
X34952395Y16764000D01*
X34232984Y17483410D01*
X34002389Y17427729D01*
X33834378Y16944922D01*
X33195319Y16944922D01*
X33159688Y17030947D01*
X32765490Y17462821D01*
X32642772Y17520336D01*
X32856307Y17663016D01*
X34412590Y17663016D01*
X35132000Y16943605D01*
X35851410Y17663016D01*
X35795729Y17893611D01*
X35312922Y18061622D01*
X34802572Y18032083D01*
X34468271Y17893611D01*
X34412590Y17663016D01*
X32856307Y17663016D01*
X32966029Y17736330D01*
X33290885Y18222511D01*
X33404959Y18796000D01*
X33290885Y19369489D01*
X32966029Y19855670D01*
X32651248Y20066000D01*
X32966029Y20276330D01*
X33290885Y20762511D01*
X33404959Y21336000D01*
X33290885Y21909489D01*
X32966029Y22395670D01*
X32479848Y22720526D01*
X31906359Y22834600D01*
X31847641Y22834600D01*
X31274152Y22720526D01*
X30808558Y22409426D01*
X30803762Y22434917D01*
X30664690Y22651041D01*
X30452490Y22796031D01*
X30200600Y22847040D01*
X28473400Y22847040D01*
X28238083Y22802762D01*
X28021959Y22663690D01*
X27876969Y22451490D01*
X27825960Y22199600D01*
X27825960Y20803316D01*
X27649161Y20768148D01*
X27402599Y20603401D01*
X27008626Y20209428D01*
X26780309Y20304000D01*
X25939750Y20304000D01*
X25781000Y20145250D01*
X25781000Y18796000D01*
X25801000Y18796000D01*
X25801000Y18542000D01*
X25781000Y18542000D01*
X25781000Y18522000D01*
X25527000Y18522000D01*
X25527000Y18542000D01*
X25507000Y18542000D01*
X25507000Y18796000D01*
X25527000Y18796000D01*
X25527000Y20145250D01*
X25368250Y20304000D01*
X24642165Y20304000D01*
X24912943Y20415883D01*
X25176192Y20678673D01*
X25318838Y21022201D01*
X25319162Y21394167D01*
X25177117Y21737943D01*
X24914327Y22001192D01*
X24570799Y22143838D01*
X24198833Y22144162D01*
X23855057Y22002117D01*
X23649440Y21796859D01*
X23649440Y22113000D01*
X23605162Y22348317D01*
X23466090Y22564441D01*
X23253890Y22709431D01*
X23002000Y22760440D01*
X21702000Y22760440D01*
X21466683Y22716162D01*
X21250559Y22577090D01*
X21105569Y22364890D01*
X21054560Y22113000D01*
X9246421Y22113000D01*
X9227090Y22143041D01*
X9014890Y22288031D01*
X8763000Y22339040D01*
X6731000Y22339040D01*
X6495683Y22294762D01*
X6279559Y22155690D01*
X6134569Y21943490D01*
X6083560Y21691600D01*
X6083560Y19964400D01*
X6127838Y19729083D01*
X6266910Y19512959D01*
X6479110Y19367969D01*
X6520439Y19359600D01*
X6502585Y19347670D01*
X6177729Y18861489D01*
X6063655Y18288000D01*
X6177729Y17714511D01*
X6502585Y17228330D01*
X6817366Y17018000D01*
X6502585Y16807670D01*
X6177729Y16321489D01*
X6081807Y15839256D01*
X5985885Y16321489D01*
X5661029Y16807670D01*
X5174848Y17132526D01*
X4601359Y17246600D01*
X4542641Y17246600D01*
X3969152Y17132526D01*
X3503558Y16821426D01*
X3498762Y16846917D01*
X3359690Y17063041D01*
X3147490Y17208031D01*
X2895600Y17259040D01*
X1168400Y17259040D01*
X933083Y17214762D01*
X716959Y17075690D01*
X710000Y17065505D01*
X710000Y23290000D01*
X39540935Y23290000D01*
X38750239Y22963291D01*
X38750239Y22963291D01*
G37*
X38750239Y22963291D02*
X37999345Y22213707D01*
X37592464Y21233827D01*
X37591538Y20172828D01*
X37996709Y19192239D01*
X38746293Y18441345D01*
X39661207Y18061440D01*
X39482000Y18061440D01*
X39246683Y18017162D01*
X39030559Y17878090D01*
X38885569Y17665890D01*
X38834560Y17414000D01*
X38834560Y16114000D01*
X38878838Y15878683D01*
X39017910Y15662559D01*
X39230110Y15517569D01*
X39270228Y15509445D01*
X39207345Y15483462D01*
X38747154Y15024073D01*
X38497794Y14423547D01*
X38497728Y14347709D01*
X37918547Y14588206D01*
X37268306Y14588774D01*
X36667345Y14340462D01*
X36207154Y13881073D01*
X36137779Y13714000D01*
X31804463Y13714000D01*
X31772327Y13746192D01*
X31428799Y13888838D01*
X31056833Y13889162D01*
X30713057Y13747117D01*
X30449808Y13484327D01*
X30307162Y13140799D01*
X30306838Y12768833D01*
X30448883Y12425057D01*
X30711673Y12161808D01*
X31055201Y12019162D01*
X31427167Y12018838D01*
X31770943Y12160883D01*
X31804118Y12194000D01*
X34624890Y12194000D01*
X34624838Y12133833D01*
X34766883Y11790057D01*
X34800000Y11756882D01*
X34800000Y10541000D01*
X34857852Y10250161D01*
X35022599Y10003599D01*
X35530599Y9495599D01*
X35608020Y9443868D01*
X35676983Y9381306D01*
X35730178Y9362245D01*
X35777160Y9330853D01*
X35868483Y9312688D01*
X35956141Y9281278D01*
X36012581Y9284025D01*
X36068000Y9273001D01*
X36159320Y9291166D01*
X36252327Y9295692D01*
X36369589Y9325008D01*
X36550480Y9143801D01*
X36207154Y8801073D01*
X35957794Y8200547D01*
X35957226Y7550306D01*
X36205538Y6949345D01*
X36550480Y6603801D01*
X36207154Y6261073D01*
X35957794Y5660547D01*
X35957226Y5010306D01*
X36205538Y4409345D01*
X36550480Y4063801D01*
X36207154Y3721073D01*
X35957794Y3120547D01*
X35957226Y2470306D01*
X36205538Y1869345D01*
X36664927Y1409154D01*
X37265453Y1159794D01*
X37915694Y1159226D01*
X38516655Y1407538D01*
X38976846Y1866927D01*
X39001779Y1926974D01*
X41318642Y1926974D01*
X41321291Y1911209D01*
X41575268Y1383964D01*
X42011680Y994046D01*
X42564087Y800816D01*
X42799000Y945076D01*
X42799000Y2159000D01*
X43053000Y2159000D01*
X43053000Y945076D01*
X43287913Y800816D01*
X43840320Y994046D01*
X44276732Y1383964D01*
X44530709Y1911209D01*
X44533358Y1926974D01*
X44412217Y2159000D01*
X43053000Y2159000D01*
X42799000Y2159000D01*
X41439783Y2159000D01*
X41318642Y1926974D01*
X39001779Y1926974D01*
X39226206Y2467453D01*
X39226272Y2543291D01*
X39805453Y2302794D01*
X40455694Y2302226D01*
X41056655Y2550538D01*
X41464116Y2957288D01*
X41321291Y2660791D01*
X41318642Y2645026D01*
X41439783Y2413000D01*
X42799000Y2413000D01*
X42799000Y2433000D01*
X43053000Y2433000D01*
X43053000Y2413000D01*
X44412217Y2413000D01*
X44533358Y2645026D01*
X44530709Y2660791D01*
X44276732Y3188036D01*
X43860931Y3559539D01*
X44170415Y3766330D01*
X44495271Y4252511D01*
X44609345Y4826000D01*
X44495271Y5399489D01*
X44170415Y5885670D01*
X43855634Y6096000D01*
X44170415Y6306330D01*
X44495271Y6792511D01*
X44609345Y7366000D01*
X44495271Y7939489D01*
X44170415Y8425670D01*
X44156087Y8435243D01*
X44177317Y8439238D01*
X44393441Y8578310D01*
X44538431Y8790510D01*
X44589440Y9042400D01*
X44589440Y10769600D01*
X44545162Y11004917D01*
X44406090Y11221041D01*
X44193890Y11366031D01*
X43942000Y11417040D01*
X41910000Y11417040D01*
X41674683Y11372762D01*
X41458559Y11233690D01*
X41313569Y11021490D01*
X41262560Y10769600D01*
X41262560Y9042400D01*
X41306838Y8807083D01*
X41445910Y8590959D01*
X41658110Y8445969D01*
X41699439Y8437600D01*
X41681585Y8425670D01*
X41356729Y7939489D01*
X41242655Y7366000D01*
X41314626Y7004176D01*
X41304401Y7014401D01*
X41057839Y7179148D01*
X40767000Y7237000D01*
X39116000Y7237000D01*
X39095611Y7232944D01*
X39226206Y7547453D01*
X39226774Y8197694D01*
X38978462Y8798655D01*
X38633520Y9144199D01*
X38976846Y9486927D01*
X39226206Y10087453D01*
X39226774Y10737694D01*
X38978462Y11338655D01*
X38633520Y11684199D01*
X38976846Y12026927D01*
X39226206Y12627453D01*
X39226272Y12703291D01*
X39805453Y12462794D01*
X40455694Y12462226D01*
X41056655Y12710538D01*
X41516846Y13169927D01*
X41766206Y13770453D01*
X41766774Y14420694D01*
X41518462Y15021655D01*
X41059073Y15481846D01*
X40998004Y15507204D01*
X41017317Y15510838D01*
X41233441Y15649910D01*
X41378431Y15862110D01*
X41429440Y16114000D01*
X41429440Y17414000D01*
X41385162Y17649317D01*
X41246090Y17865441D01*
X41033890Y18010431D01*
X40830789Y18051560D01*
X41767761Y18438709D01*
X42518655Y19188293D01*
X42925536Y20168173D01*
X42926462Y21229172D01*
X42521291Y22209761D01*
X41771707Y22960655D01*
X40978555Y23290000D01*
X44873000Y23290000D01*
X44873000Y18167250D01*
X44847794Y18106547D01*
X44847226Y17456306D01*
X44873000Y17393928D01*
X44873000Y710000D01*
X710000Y710000D01*
X710000Y1260837D01*
X19855443Y1260837D01*
X19954042Y994035D01*
X20563582Y767599D01*
X21213377Y791659D01*
X21701958Y994035D01*
X21800557Y1260837D01*
X20828000Y2233395D01*
X19855443Y1260837D01*
X710000Y1260837D01*
X710000Y4876995D01*
X942971Y4528330D01*
X1429152Y4203474D01*
X2002641Y4089400D01*
X2061359Y4089400D01*
X2634848Y4203474D01*
X3121029Y4528330D01*
X3301992Y4799161D01*
X3683510Y4381179D01*
X4212973Y4133032D01*
X4445000Y4253531D01*
X4445000Y5461000D01*
X4425000Y5461000D01*
X4425000Y5715000D01*
X4445000Y5715000D01*
X4445000Y5735000D01*
X4699000Y5735000D01*
X4699000Y5715000D01*
X4719000Y5715000D01*
X4719000Y5461000D01*
X4699000Y5461000D01*
X4699000Y4253531D01*
X4931027Y4133032D01*
X5460490Y4381179D01*
X5854688Y4813053D01*
X6026958Y5228974D01*
X5905818Y5460998D01*
X6070600Y5460998D01*
X6070600Y5553085D01*
X6177729Y5014511D01*
X6502585Y4528330D01*
X6817366Y4318000D01*
X6502585Y4107670D01*
X6177729Y3621489D01*
X6063655Y3048000D01*
X6177729Y2474511D01*
X6502585Y1988330D01*
X6988766Y1663474D01*
X7562255Y1549400D01*
X7931745Y1549400D01*
X8505234Y1663474D01*
X8991415Y1988330D01*
X9316271Y2474511D01*
X9430345Y3048000D01*
X9316271Y3621489D01*
X8991415Y4107670D01*
X8676634Y4318000D01*
X8991415Y4528330D01*
X9316271Y5014511D01*
X9430345Y5588000D01*
X9316271Y6161489D01*
X8991415Y6647670D01*
X8676634Y6858000D01*
X8924273Y7023467D01*
X8929238Y6997083D01*
X9068310Y6780959D01*
X9280510Y6635969D01*
X9532400Y6584960D01*
X9988163Y6584960D01*
X9918154Y6515073D01*
X9668794Y5914547D01*
X9668226Y5264306D01*
X9916538Y4663345D01*
X10241160Y4338156D01*
X9918154Y4015713D01*
X9668794Y3415187D01*
X9668226Y2764946D01*
X9916538Y2163985D01*
X10375927Y1703794D01*
X10976453Y1454434D01*
X11626694Y1453866D01*
X12227655Y1702178D01*
X12687846Y2161567D01*
X12902045Y2677418D01*
X19182599Y2677418D01*
X19206659Y2027623D01*
X19409035Y1539042D01*
X19675837Y1440443D01*
X20648395Y2413000D01*
X19675837Y3385557D01*
X19409035Y3286958D01*
X19182599Y2677418D01*
X12902045Y2677418D01*
X12937206Y2762093D01*
X12937774Y3412334D01*
X12689462Y4013295D01*
X12364840Y4338484D01*
X12687846Y4660927D01*
X12937206Y5261453D01*
X12937774Y5911694D01*
X12912456Y5972970D01*
X13932000Y5972970D01*
X13932000Y5203030D01*
X14041233Y4653879D01*
X14352302Y4188332D01*
X14817849Y3877263D01*
X15367000Y3768030D01*
X15916151Y3877263D01*
X16381698Y4188332D01*
X16637000Y4570418D01*
X16892302Y4188332D01*
X17357849Y3877263D01*
X17907000Y3768030D01*
X18456151Y3877263D01*
X18921698Y4188332D01*
X19177000Y4570418D01*
X19432302Y4188332D01*
X19897849Y3877263D01*
X20009692Y3855016D01*
X19954042Y3831965D01*
X19855443Y3565163D01*
X20828000Y2592605D01*
X21800557Y3565163D01*
X21701958Y3831965D01*
X21204776Y4016662D01*
X21461698Y4188332D01*
X21714149Y4566151D01*
X22062104Y4133500D01*
X22555181Y3863633D01*
X22557052Y3863237D01*
X22402705Y3799462D01*
X21985939Y3383422D01*
X21980163Y3385557D01*
X21007605Y2413000D01*
X21980163Y1440443D01*
X21986411Y1442752D01*
X22400287Y1028154D01*
X23000813Y778794D01*
X23651054Y778226D01*
X24252015Y1026538D01*
X24712206Y1485927D01*
X24961566Y2086453D01*
X24962134Y2736694D01*
X24713822Y3337655D01*
X24254433Y3797846D01*
X23710950Y4023520D01*
X23911896Y4133500D01*
X24264166Y4571517D01*
X24422000Y5111000D01*
X24422000Y5461000D01*
X23114000Y5461000D01*
X23114000Y5441000D01*
X22860000Y5441000D01*
X22860000Y5461000D01*
X22840000Y5461000D01*
X22840000Y5715000D01*
X22860000Y5715000D01*
X22860000Y7207915D01*
X23114000Y7207915D01*
X23114000Y5715000D01*
X24422000Y5715000D01*
X24422000Y6065000D01*
X24264166Y6604483D01*
X23911896Y7042500D01*
X23418819Y7312367D01*
X23336039Y7329904D01*
X23114000Y7207915D01*
X22860000Y7207915D01*
X22637961Y7329904D01*
X22555181Y7312367D01*
X22062104Y7042500D01*
X21714149Y6609849D01*
X21461698Y6987668D01*
X20996151Y7298737D01*
X20447000Y7407970D01*
X19897849Y7298737D01*
X19432302Y6987668D01*
X19177000Y6605582D01*
X18921698Y6987668D01*
X18456151Y7298737D01*
X17907000Y7407970D01*
X17357849Y7298737D01*
X16892302Y6987668D01*
X16637000Y6605582D01*
X16381698Y6987668D01*
X15916151Y7298737D01*
X15367000Y7407970D01*
X14817849Y7298737D01*
X14352302Y6987668D01*
X14041233Y6522121D01*
X13932000Y5972970D01*
X12912456Y5972970D01*
X12689462Y6512655D01*
X12306490Y6896296D01*
X12364031Y6980510D01*
X12415040Y7232400D01*
X12415040Y9467600D01*
X12370762Y9702917D01*
X12231690Y9919041D01*
X12019490Y10064031D01*
X11767600Y10115040D01*
X9532400Y10115040D01*
X9300880Y10071476D01*
X9316271Y10094511D01*
X9417014Y10600984D01*
X10280590Y10600984D01*
X10336271Y10370389D01*
X10819078Y10202378D01*
X11329428Y10231917D01*
X11663729Y10370389D01*
X11719410Y10600984D01*
X11000000Y11320395D01*
X10280590Y10600984D01*
X9417014Y10600984D01*
X9430345Y10668000D01*
X9316271Y11241489D01*
X9022652Y11680922D01*
X9702378Y11680922D01*
X9731917Y11170572D01*
X9870389Y10836271D01*
X10100984Y10780590D01*
X10820395Y11500000D01*
X11179605Y11500000D01*
X11899016Y10780590D01*
X12129611Y10836271D01*
X12297622Y11319078D01*
X12268083Y11829428D01*
X12129611Y12163729D01*
X11899016Y12219410D01*
X11179605Y11500000D01*
X10820395Y11500000D01*
X10100984Y12219410D01*
X9870389Y12163729D01*
X9702378Y11680922D01*
X9022652Y11680922D01*
X8991415Y11727670D01*
X8676634Y11938000D01*
X8991415Y12148330D01*
X9316271Y12634511D01*
X9430345Y13208000D01*
X9316271Y13781489D01*
X8991415Y14267670D01*
X8676634Y14478000D01*
X8934050Y14650000D01*
X9702560Y14650000D01*
X9702560Y13350000D01*
X9746838Y13114683D01*
X9885910Y12898559D01*
X10098110Y12753569D01*
X10350000Y12702560D01*
X10512385Y12702560D01*
X10336271Y12629611D01*
X10280590Y12399016D01*
X11000000Y11679605D01*
X11719410Y12399016D01*
X11663729Y12629611D01*
X11454098Y12702560D01*
X11650000Y12702560D01*
X11885317Y12746838D01*
X12101441Y12885910D01*
X12246431Y13098110D01*
X12297440Y13350000D01*
X12297440Y14650000D01*
X12277498Y14755982D01*
X12347910Y14646559D01*
X12560110Y14501569D01*
X12812000Y14450560D01*
X14112000Y14450560D01*
X14266786Y14479685D01*
X14041233Y14142121D01*
X13932000Y13592970D01*
X13932000Y12823030D01*
X14041233Y12273879D01*
X14352302Y11808332D01*
X14817849Y11497263D01*
X15367000Y11388030D01*
X15916151Y11497263D01*
X16381698Y11808332D01*
X16637000Y12190418D01*
X16892302Y11808332D01*
X17357849Y11497263D01*
X17907000Y11388030D01*
X18456151Y11497263D01*
X18921698Y11808332D01*
X19177000Y12190418D01*
X19432302Y11808332D01*
X19897849Y11497263D01*
X20447000Y11388030D01*
X20996151Y11497263D01*
X21461698Y11808332D01*
X21717000Y12190418D01*
X21972302Y11808332D01*
X22437849Y11497263D01*
X22987000Y11388030D01*
X23536151Y11497263D01*
X24001698Y11808332D01*
X24312767Y12273879D01*
X24422000Y12823030D01*
X24422000Y13592970D01*
X24312767Y14142121D01*
X24001698Y14607668D01*
X23536151Y14918737D01*
X22987000Y15027970D01*
X22437849Y14918737D01*
X21972302Y14607668D01*
X21717000Y14225582D01*
X21461698Y14607668D01*
X20996151Y14918737D01*
X20447000Y15027970D01*
X19897849Y14918737D01*
X19432302Y14607668D01*
X19177000Y14225582D01*
X18960316Y14549873D01*
X19125729Y14618389D01*
X19181410Y14848984D01*
X18462000Y15568395D01*
X18447858Y15554252D01*
X18268252Y15733858D01*
X18282395Y15748000D01*
X18641605Y15748000D01*
X19361016Y15028590D01*
X19591611Y15084271D01*
X19758545Y15563984D01*
X21632590Y15563984D01*
X21688271Y15333389D01*
X22171078Y15165378D01*
X22681428Y15194917D01*
X23015729Y15333389D01*
X23071410Y15563984D01*
X22352000Y16283395D01*
X21632590Y15563984D01*
X19758545Y15563984D01*
X19759622Y15567078D01*
X19730083Y16077428D01*
X19591611Y16411729D01*
X19361016Y16467410D01*
X18641605Y15748000D01*
X18282395Y15748000D01*
X17562984Y16467410D01*
X17332389Y16411729D01*
X17164378Y15928922D01*
X17193917Y15418572D01*
X17332389Y15084271D01*
X17562982Y15028590D01*
X17476787Y14942395D01*
X17357849Y14918737D01*
X16892302Y14607668D01*
X16637000Y14225582D01*
X16381698Y14607668D01*
X15916151Y14918737D01*
X15367000Y15027970D01*
X14817849Y14918737D01*
X14707823Y14845220D01*
X14708431Y14846110D01*
X14759440Y15098000D01*
X14759440Y16398000D01*
X14715162Y16633317D01*
X14706347Y16647016D01*
X17742590Y16647016D01*
X18462000Y15927605D01*
X19178316Y16643922D01*
X21054378Y16643922D01*
X21083917Y16133572D01*
X21222389Y15799271D01*
X21452984Y15743590D01*
X22172395Y16463000D01*
X22531605Y16463000D01*
X23251016Y15743590D01*
X23481611Y15799271D01*
X23649622Y16282078D01*
X23620083Y16792428D01*
X23481611Y17126729D01*
X23251016Y17182410D01*
X22531605Y16463000D01*
X22172395Y16463000D01*
X21452984Y17182410D01*
X21222389Y17126729D01*
X21054378Y16643922D01*
X19178316Y16643922D01*
X19181410Y16647016D01*
X19125729Y16877611D01*
X18642922Y17045622D01*
X18132572Y17016083D01*
X17798271Y16877611D01*
X17742590Y16647016D01*
X14706347Y16647016D01*
X14576090Y16849441D01*
X14363890Y16994431D01*
X14112000Y17045440D01*
X12812000Y17045440D01*
X12576683Y17001162D01*
X12360559Y16862090D01*
X12215569Y16649890D01*
X12164560Y16398000D01*
X12164560Y15098000D01*
X12184502Y14992018D01*
X12114090Y15101441D01*
X11901890Y15246431D01*
X11650000Y15297440D01*
X10350000Y15297440D01*
X10114683Y15253162D01*
X9898559Y15114090D01*
X9753569Y14901890D01*
X9702560Y14650000D01*
X8934050Y14650000D01*
X8991415Y14688330D01*
X9316271Y15174511D01*
X9430345Y15748000D01*
X9316271Y16321489D01*
X8991415Y16807670D01*
X8676634Y17018000D01*
X8991415Y17228330D01*
X9080741Y17362016D01*
X21632590Y17362016D01*
X22352000Y16642605D01*
X23071410Y17362016D01*
X23015729Y17592611D01*
X22532922Y17760622D01*
X22022572Y17731083D01*
X21688271Y17592611D01*
X21632590Y17362016D01*
X9080741Y17362016D01*
X9316271Y17714511D01*
X9430345Y18288000D01*
X9316271Y18861489D01*
X8991415Y19347670D01*
X8977087Y19357243D01*
X8998317Y19361238D01*
X9214441Y19500310D01*
X9359431Y19712510D01*
X9387135Y19849321D01*
X10541000Y19849321D01*
X10541000Y19266679D01*
X10666675Y18634869D01*
X11024567Y18099246D01*
X11560190Y17741354D01*
X12192000Y17615679D01*
X12823810Y17741354D01*
X13359433Y18099246D01*
X13476054Y18273781D01*
X13654370Y18046764D01*
X14217523Y17730074D01*
X14349056Y17698025D01*
X14605000Y17817164D01*
X14605000Y19431000D01*
X14585000Y19431000D01*
X14585000Y19685000D01*
X14605000Y19685000D01*
X14605000Y21298836D01*
X14859000Y21298836D01*
X14859000Y19685000D01*
X14879000Y19685000D01*
X14879000Y19431000D01*
X14859000Y19431000D01*
X14859000Y17817164D01*
X15114944Y17698025D01*
X15246477Y17730074D01*
X15809630Y18046764D01*
X15987946Y18273781D01*
X16104567Y18099246D01*
X16640190Y17741354D01*
X17272000Y17615679D01*
X17903810Y17741354D01*
X18439433Y18099246D01*
X18797325Y18634869D01*
X18923000Y19266679D01*
X18923000Y19849321D01*
X18797325Y20481131D01*
X18439433Y21016754D01*
X17903810Y21374646D01*
X17272000Y21500321D01*
X16640190Y21374646D01*
X16104567Y21016754D01*
X15987946Y20842219D01*
X15809630Y21069236D01*
X15246477Y21385926D01*
X15114944Y21417975D01*
X14859000Y21298836D01*
X14605000Y21298836D01*
X14349056Y21417975D01*
X14217523Y21385926D01*
X13654370Y21069236D01*
X13476054Y20842219D01*
X13359433Y21016754D01*
X12823810Y21374646D01*
X12192000Y21500321D01*
X11560190Y21374646D01*
X11024567Y21016754D01*
X10666675Y20481131D01*
X10541000Y19849321D01*
X9387135Y19849321D01*
X9410440Y19964400D01*
X9410440Y21691600D01*
X9366162Y21926917D01*
X9246421Y22113000D01*
X21054560Y22113000D01*
X21054560Y20813000D01*
X21098838Y20577683D01*
X21237910Y20361559D01*
X21450110Y20216569D01*
X21702000Y20165560D01*
X22862000Y20165560D01*
X22862000Y19358463D01*
X22829808Y19326327D01*
X22687162Y18982799D01*
X22686838Y18610833D01*
X22828883Y18267057D01*
X23091673Y18003808D01*
X23435201Y17861162D01*
X23807167Y17860838D01*
X24019000Y17948365D01*
X24019000Y17542690D01*
X24115673Y17309301D01*
X24294302Y17130673D01*
X24328834Y17116370D01*
X24268722Y17056363D01*
X24019284Y16455648D01*
X24018716Y15805205D01*
X24267106Y15204057D01*
X24726637Y14743722D01*
X24980878Y14638152D01*
X24894484Y12219126D01*
X24909665Y12125442D01*
X24911346Y12030554D01*
X24933170Y11980399D01*
X24941919Y11926407D01*
X24991796Y11845664D01*
X25029661Y11758642D01*
X25069015Y11720658D01*
X25097761Y11674122D01*
X25174736Y11618615D01*
X25243024Y11552704D01*
X25947089Y11100091D01*
X25797794Y10740547D01*
X25797226Y10090306D01*
X26045538Y9489345D01*
X26390480Y9143801D01*
X26047154Y8801073D01*
X25797794Y8200547D01*
X25797226Y7550306D01*
X26045538Y6949345D01*
X26390480Y6603801D01*
X26047154Y6261073D01*
X25797794Y5660547D01*
X25797226Y5010306D01*
X26045538Y4409345D01*
X26390480Y4063801D01*
X26047154Y3721073D01*
X25797794Y3120547D01*
X25797226Y2470306D01*
X26045538Y1869345D01*
X26504927Y1409154D01*
X27105453Y1159794D01*
X27755694Y1159226D01*
X28356655Y1407538D01*
X28816846Y1866927D01*
X29066206Y2467453D01*
X29066774Y3117694D01*
X28818462Y3718655D01*
X28473520Y4064199D01*
X28816846Y4406927D01*
X29066206Y5007453D01*
X29066774Y5657694D01*
X28818462Y6258655D01*
X28473520Y6604199D01*
X28812768Y6942856D01*
X30516449Y6738414D01*
X30562096Y6741932D01*
X30607000Y6733000D01*
X30708713Y6753232D01*
X30812109Y6761201D01*
X30852936Y6781920D01*
X30897839Y6790852D01*
X30984065Y6848466D01*
X31076544Y6895398D01*
X31106334Y6930163D01*
X31144401Y6955599D01*
X31635680Y7446878D01*
X31681167Y7446838D01*
X32024943Y7588883D01*
X32288192Y7851673D01*
X32430838Y8195201D01*
X32431162Y8567167D01*
X32289117Y8910943D01*
X32026327Y9174192D01*
X31682799Y9316838D01*
X31310833Y9317162D01*
X30967057Y9175117D01*
X30703808Y8912327D01*
X30561162Y8568799D01*
X30561121Y8521923D01*
X30330795Y8291597D01*
X28960006Y8456091D01*
X28818462Y8798655D01*
X28473520Y9144199D01*
X28816846Y9486927D01*
X29066206Y10087453D01*
X29066774Y10737694D01*
X28818462Y11338655D01*
X28473520Y11684199D01*
X28816846Y12026927D01*
X29066206Y12627453D01*
X29066774Y13277694D01*
X28937319Y13591000D01*
X29591000Y13591000D01*
X29653160Y13603364D01*
X29716507Y13601435D01*
X29797204Y13632017D01*
X29881839Y13648852D01*
X29934533Y13684061D01*
X29993799Y13706521D01*
X31009800Y14341521D01*
X31072653Y14400658D01*
X31144401Y14448599D01*
X31179611Y14501294D01*
X31225769Y14544724D01*
X31261205Y14623409D01*
X31309148Y14695161D01*
X31321512Y14757320D01*
X31347537Y14815107D01*
X31349513Y14879985D01*
X31517973Y14801032D01*
X31750000Y14921531D01*
X31750000Y16129000D01*
X32004000Y16129000D01*
X32004000Y14921531D01*
X32236027Y14801032D01*
X32765490Y15049179D01*
X33159688Y15481053D01*
X33318708Y15864984D01*
X34412590Y15864984D01*
X34468271Y15634389D01*
X34951078Y15466378D01*
X35461428Y15495917D01*
X35795729Y15634389D01*
X35851410Y15864984D01*
X35132000Y16584395D01*
X34412590Y15864984D01*
X33318708Y15864984D01*
X33331958Y15896974D01*
X33210817Y16129000D01*
X32004000Y16129000D01*
X31750000Y16129000D01*
X31730000Y16129000D01*
X31730000Y16383000D01*
X31750000Y16383000D01*
X31750000Y16403000D01*
X32004000Y16403000D01*
X32004000Y16383000D01*
X33210817Y16383000D01*
X33331958Y16615026D01*
X33195319Y16944922D01*
X33834378Y16944922D01*
X33863917Y16434572D01*
X34002389Y16100271D01*
X34232984Y16044590D01*
X34952395Y16764000D01*
X35311605Y16764000D01*
X36031016Y16044590D01*
X36261611Y16100271D01*
X36429622Y16583078D01*
X36400083Y17093428D01*
X36261611Y17427729D01*
X36031016Y17483410D01*
X35311605Y16764000D01*
X34952395Y16764000D01*
X34232984Y17483410D01*
X34002389Y17427729D01*
X33834378Y16944922D01*
X33195319Y16944922D01*
X33159688Y17030947D01*
X32765490Y17462821D01*
X32642772Y17520336D01*
X32856307Y17663016D01*
X34412590Y17663016D01*
X35132000Y16943605D01*
X35851410Y17663016D01*
X35795729Y17893611D01*
X35312922Y18061622D01*
X34802572Y18032083D01*
X34468271Y17893611D01*
X34412590Y17663016D01*
X32856307Y17663016D01*
X32966029Y17736330D01*
X33290885Y18222511D01*
X33404959Y18796000D01*
X33290885Y19369489D01*
X32966029Y19855670D01*
X32651248Y20066000D01*
X32966029Y20276330D01*
X33290885Y20762511D01*
X33404959Y21336000D01*
X33290885Y21909489D01*
X32966029Y22395670D01*
X32479848Y22720526D01*
X31906359Y22834600D01*
X31847641Y22834600D01*
X31274152Y22720526D01*
X30808558Y22409426D01*
X30803762Y22434917D01*
X30664690Y22651041D01*
X30452490Y22796031D01*
X30200600Y22847040D01*
X28473400Y22847040D01*
X28238083Y22802762D01*
X28021959Y22663690D01*
X27876969Y22451490D01*
X27825960Y22199600D01*
X27825960Y20803316D01*
X27649161Y20768148D01*
X27402599Y20603401D01*
X27008626Y20209428D01*
X26780309Y20304000D01*
X25939750Y20304000D01*
X25781000Y20145250D01*
X25781000Y18796000D01*
X25801000Y18796000D01*
X25801000Y18542000D01*
X25781000Y18542000D01*
X25781000Y18522000D01*
X25527000Y18522000D01*
X25527000Y18542000D01*
X25507000Y18542000D01*
X25507000Y18796000D01*
X25527000Y18796000D01*
X25527000Y20145250D01*
X25368250Y20304000D01*
X24642165Y20304000D01*
X24912943Y20415883D01*
X25176192Y20678673D01*
X25318838Y21022201D01*
X25319162Y21394167D01*
X25177117Y21737943D01*
X24914327Y22001192D01*
X24570799Y22143838D01*
X24198833Y22144162D01*
X23855057Y22002117D01*
X23649440Y21796859D01*
X23649440Y22113000D01*
X23605162Y22348317D01*
X23466090Y22564441D01*
X23253890Y22709431D01*
X23002000Y22760440D01*
X21702000Y22760440D01*
X21466683Y22716162D01*
X21250559Y22577090D01*
X21105569Y22364890D01*
X21054560Y22113000D01*
X9246421Y22113000D01*
X9227090Y22143041D01*
X9014890Y22288031D01*
X8763000Y22339040D01*
X6731000Y22339040D01*
X6495683Y22294762D01*
X6279559Y22155690D01*
X6134569Y21943490D01*
X6083560Y21691600D01*
X6083560Y19964400D01*
X6127838Y19729083D01*
X6266910Y19512959D01*
X6479110Y19367969D01*
X6520439Y19359600D01*
X6502585Y19347670D01*
X6177729Y18861489D01*
X6063655Y18288000D01*
X6177729Y17714511D01*
X6502585Y17228330D01*
X6817366Y17018000D01*
X6502585Y16807670D01*
X6177729Y16321489D01*
X6081807Y15839256D01*
X5985885Y16321489D01*
X5661029Y16807670D01*
X5174848Y17132526D01*
X4601359Y17246600D01*
X4542641Y17246600D01*
X3969152Y17132526D01*
X3503558Y16821426D01*
X3498762Y16846917D01*
X3359690Y17063041D01*
X3147490Y17208031D01*
X2895600Y17259040D01*
X1168400Y17259040D01*
X933083Y17214762D01*
X716959Y17075690D01*
X710000Y17065505D01*
X710000Y23290000D01*
X39540935Y23290000D01*
X38750239Y22963291D01*
M02*
