G04 #@! TF.FileFunction,Copper,L1,Top,Mixed*
%FSLAX46Y46*%
G04 Gerber Fmt 4.6, Leading zero omitted, Abs format (unit mm)*
G04 Created by KiCad (PCBNEW 4.0.1-stable) date Mittwoch, 17. Februar 2016 08:22:04*
%MOMM*%
G01*
G04 APERTURE LIST*
%ADD10C,0.100000*%
%ADD11C,0.150000*%
%ADD12C,4.064000*%
%ADD13C,1.998980*%
%ADD14R,1.300000X1.300000*%
%ADD15C,1.300000*%
%ADD16R,0.720000X0.600000*%
%ADD17R,0.800100X0.800100*%
%ADD18R,1.727200X1.727200*%
%ADD19O,1.727200X1.727200*%
%ADD20R,2.032000X1.727200*%
%ADD21O,2.032000X1.727200*%
%ADD22R,2.235200X2.235200*%
%ADD23O,1.600000X2.300000*%
%ADD24R,2.000000X2.000000*%
%ADD25C,2.000000*%
%ADD26O,2.032000X2.540000*%
%ADD27C,0.600000*%
%ADD28C,0.500000*%
%ADD29C,0.250000*%
G04 APERTURE END LIST*
D10*
D11*
X0Y24000000D02*
X0Y0D01*
X54000000Y24000000D02*
X0Y24000000D01*
X54000000Y24000000D02*
X54000000Y0D01*
X0Y0D02*
X54000000Y0D01*
D12*
X40259000Y20701000D03*
D13*
X11303000Y3088640D03*
X11303000Y5588000D03*
X23327360Y2413000D03*
X20828000Y2413000D03*
D14*
X11000000Y14000000D03*
D15*
X11000000Y11500000D03*
D13*
X46482000Y17780000D03*
X52070000Y20320000D03*
X46609000Y20320000D03*
X52197000Y17780000D03*
D16*
X50103000Y20378000D03*
X48703000Y20378000D03*
X50103000Y19408000D03*
X48703000Y19408000D03*
X50103000Y18438000D03*
X48703000Y18438000D03*
X50103000Y17468000D03*
X48703000Y17468000D03*
D13*
X40132000Y14097000D03*
X40132000Y3937000D03*
X37592000Y10414000D03*
X27432000Y10414000D03*
X37592000Y2794000D03*
X27432000Y2794000D03*
X27432000Y5334000D03*
X37592000Y5334000D03*
X27432000Y12954000D03*
X37592000Y12954000D03*
X37592000Y7874000D03*
X27432000Y7874000D03*
D17*
X16317000Y3159760D03*
X14417000Y3159760D03*
X15367000Y1160780D03*
D18*
X29337000Y21336000D03*
D19*
X31877000Y21336000D03*
X29337000Y18796000D03*
X31877000Y18796000D03*
X29337000Y16256000D03*
X31877000Y16256000D03*
D20*
X7747000Y20828000D03*
D21*
X7747000Y18288000D03*
X7747000Y15748000D03*
X7747000Y13208000D03*
X7747000Y10668000D03*
X7747000Y8128000D03*
X7747000Y5588000D03*
X7747000Y3048000D03*
D22*
X10650000Y8350000D03*
D18*
X2032000Y15748000D03*
D19*
X4572000Y15748000D03*
X2032000Y13208000D03*
X4572000Y13208000D03*
X2032000Y10668000D03*
X4572000Y10668000D03*
X2032000Y8128000D03*
X4572000Y8128000D03*
X2032000Y5588000D03*
X4572000Y5588000D03*
D23*
X15367000Y5588000D03*
X17907000Y5588000D03*
X20447000Y5588000D03*
X22987000Y5588000D03*
X22987000Y13208000D03*
X20447000Y13208000D03*
X17907000Y13208000D03*
X15367000Y13208000D03*
D24*
X25654000Y18669000D03*
D25*
X25654000Y16129000D03*
D14*
X46863000Y15113000D03*
D15*
X51863000Y15113000D03*
D14*
X40132000Y16764000D03*
D15*
X35132000Y16764000D03*
D14*
X13462000Y15748000D03*
D15*
X18462000Y15748000D03*
D14*
X22352000Y21463000D03*
D15*
X22352000Y16463000D03*
D20*
X42926000Y9906000D03*
D21*
X42926000Y7366000D03*
X42926000Y4826000D03*
X42926000Y2286000D03*
D26*
X14732000Y19558000D03*
X17272000Y19558000D03*
X12192000Y19558000D03*
D27*
X27178000Y16256000D03*
X31496000Y8382000D03*
X26416000Y14478000D03*
X35560000Y12319000D03*
X24384000Y21209000D03*
X23622000Y18796000D03*
X31242000Y12954000D03*
X49276000Y21463000D03*
X49276000Y16383000D03*
D28*
X2032000Y15748000D02*
X2032000Y19558000D01*
X9017000Y22733000D02*
X12192000Y19558000D01*
X5207000Y22733000D02*
X9017000Y22733000D01*
X2032000Y19558000D02*
X5207000Y22733000D01*
D29*
X11000000Y14000000D02*
X10287000Y17653000D01*
X10287000Y17653000D02*
X12192000Y19558000D01*
X14417000Y3159760D02*
X14417000Y3109000D01*
X14417000Y3109000D02*
X15367000Y2159000D01*
X15367000Y2159000D02*
X20574000Y2159000D01*
X20574000Y2159000D02*
X20828000Y2413000D01*
X40132000Y3937000D02*
X38735000Y3937000D01*
X38735000Y3937000D02*
X37592000Y2794000D01*
X27178000Y13208000D02*
X27178000Y16256000D01*
X27178000Y13208000D02*
X27432000Y12954000D01*
X27432000Y12954000D02*
X28956000Y12954000D01*
X30480000Y11430000D02*
X30480000Y4953000D01*
X28956000Y12954000D02*
X30480000Y11430000D01*
X15367000Y13208000D02*
X15367000Y9652000D01*
X15367000Y9652000D02*
X11303000Y5588000D01*
X22352000Y21463000D02*
X22479000Y21463000D01*
X22479000Y21463000D02*
X23622000Y22606000D01*
X30607000Y22606000D02*
X31877000Y21336000D01*
X23622000Y22606000D02*
X30607000Y22606000D01*
X40132000Y3937000D02*
X40132000Y4953000D01*
X40132000Y4953000D02*
X37592000Y7874000D01*
X27432000Y5334000D02*
X30480000Y4953000D01*
X30480000Y4953000D02*
X35052000Y4953000D01*
X35052000Y4953000D02*
X37592000Y2794000D01*
X17272000Y19558000D02*
X20447000Y19558000D01*
X20447000Y19558000D02*
X22352000Y21463000D01*
D28*
X17272000Y19558000D02*
X13462000Y15748000D01*
X13462000Y15748000D02*
X13462000Y15113000D01*
X13462000Y15113000D02*
X15367000Y13208000D01*
D29*
X40132000Y14097000D02*
X40132000Y12700000D01*
X40132000Y12700000D02*
X42926000Y9906000D01*
X40132000Y16764000D02*
X40132000Y14097000D01*
X29400500Y16192500D02*
X29400500Y13652500D01*
X29400500Y13652500D02*
X31496000Y11557000D01*
X31496000Y11557000D02*
X31496000Y8382000D01*
X29400500Y16192500D02*
X29337000Y16256000D01*
X27432000Y7874000D02*
X26035000Y8890000D01*
X26035000Y8890000D02*
X16383000Y8890000D01*
X15367000Y7874000D02*
X15367000Y5588000D01*
X16383000Y8890000D02*
X15367000Y7874000D01*
X16317000Y3159760D02*
X16317000Y3998000D01*
X16317000Y3998000D02*
X17907000Y5588000D01*
X27432000Y2794000D02*
X23327360Y2413000D01*
X20447000Y5588000D02*
X20447000Y5080000D01*
X20447000Y5080000D02*
X21590000Y3937000D01*
X25908000Y3937000D02*
X27432000Y2794000D01*
X21590000Y3937000D02*
X25908000Y3937000D01*
X20447000Y5588000D02*
X20447000Y4912360D01*
X37592000Y5334000D02*
X33655000Y8890000D01*
X33655000Y17018000D02*
X33655000Y8890000D01*
X33655000Y17018000D02*
X31877000Y18796000D01*
X25146000Y13208000D02*
X22987000Y13208000D01*
X26416000Y14478000D02*
X25146000Y13208000D01*
X31877000Y18796000D02*
X32639000Y18796000D01*
X35687000Y18034000D02*
X33909000Y18034000D01*
X35687000Y18034000D02*
X36576000Y17145000D01*
X36576000Y17145000D02*
X36576000Y14986000D01*
X36576000Y14986000D02*
X35560000Y13970000D01*
X35560000Y13970000D02*
X35560000Y12319000D01*
X30607000Y20066000D02*
X29337000Y21336000D01*
X32512000Y20066000D02*
X30607000Y20066000D01*
X33401000Y19177000D02*
X32512000Y20066000D01*
X33401000Y18542000D02*
X33401000Y19177000D01*
X33909000Y18034000D02*
X33401000Y18542000D01*
X29210000Y21209000D02*
X24384000Y21209000D01*
X23622000Y18796000D02*
X23622000Y15240000D01*
X23622000Y15240000D02*
X23368000Y14986000D01*
X23368000Y14986000D02*
X22225000Y14986000D01*
X22225000Y14986000D02*
X20447000Y13208000D01*
X29210000Y21209000D02*
X29337000Y21336000D01*
X31242000Y12954000D02*
X31115000Y12954000D01*
X30607000Y17526000D02*
X29337000Y18796000D01*
X30607000Y13462000D02*
X30607000Y17526000D01*
X31115000Y12954000D02*
X30607000Y13462000D01*
X37592000Y12954000D02*
X37592000Y12700000D01*
X37592000Y12700000D02*
X42926000Y7366000D01*
X20066000Y15367000D02*
X17907000Y13208000D01*
X20066000Y16637000D02*
X20066000Y15367000D01*
X23749000Y20320000D02*
X20066000Y16637000D01*
X26670000Y20320000D02*
X23749000Y20320000D01*
X29337000Y18796000D02*
X26670000Y20320000D01*
X7747000Y20828000D02*
X5842000Y20828000D01*
X4572000Y19558000D02*
X4572000Y15748000D01*
X5842000Y20828000D02*
X4572000Y19558000D01*
X2032000Y13208000D02*
X3302000Y14478000D01*
X6096000Y16637000D02*
X7747000Y18288000D01*
X6096000Y15240000D02*
X6096000Y16637000D01*
X5334000Y14478000D02*
X6096000Y15240000D01*
X3302000Y14478000D02*
X5334000Y14478000D01*
X4572000Y13208000D02*
X5207000Y13208000D01*
X5207000Y13208000D02*
X7747000Y15748000D01*
X7747000Y13208000D02*
X5842000Y11938000D01*
X3302000Y11938000D02*
X2032000Y10668000D01*
X5842000Y11938000D02*
X3302000Y11938000D01*
X7747000Y10668000D02*
X4572000Y10668000D01*
X7747000Y8128000D02*
X5842000Y9398000D01*
X3302000Y9398000D02*
X2032000Y8128000D01*
X5842000Y9398000D02*
X3302000Y9398000D01*
X7747000Y5588000D02*
X4572000Y8128000D01*
X2032000Y5588000D02*
X2032000Y4953000D01*
X2032000Y4953000D02*
X3937000Y3048000D01*
X3937000Y3048000D02*
X7747000Y3048000D01*
X11303000Y3088640D02*
X11262360Y3088640D01*
X11262360Y3088640D02*
X9525000Y4826000D01*
X9525000Y7225000D02*
X10650000Y8350000D01*
X9525000Y4826000D02*
X9525000Y7225000D01*
X15367000Y1160780D02*
X11955780Y1160780D01*
X11303000Y1813560D02*
X11303000Y3088640D01*
X11955780Y1160780D02*
X11303000Y1813560D01*
X50103000Y18438000D02*
X50103000Y17468000D01*
X48768000Y15810000D02*
X48768000Y15875000D01*
X48703000Y20890000D02*
X48703000Y20378000D01*
X49276000Y21463000D02*
X48703000Y20890000D01*
X48768000Y15875000D02*
X49276000Y16383000D01*
X48703000Y15810000D02*
X48768000Y15810000D01*
X48768000Y15810000D02*
X50227000Y15810000D01*
X50227000Y15810000D02*
X52197000Y17780000D01*
X48703000Y17468000D02*
X48703000Y15810000D01*
X48006000Y15113000D02*
X46863000Y15113000D01*
X48703000Y15810000D02*
X48006000Y15113000D01*
X48703000Y18438000D02*
X47775000Y18438000D01*
X47775000Y18438000D02*
X46482000Y17780000D01*
X48703000Y19408000D02*
X46886000Y20043000D01*
X46886000Y20043000D02*
X46609000Y20320000D01*
X50103000Y20378000D02*
X51631000Y20759000D01*
X51631000Y20759000D02*
X52070000Y20320000D01*
M02*
